Coordinates
version=1
nRows=8
nColumns=40
inDegrees=yes

Units are S.I. units (second, meters, Newtons, ...)
If the header above contains a line with 'inDegrees', this indicates whether rotational values are in degrees (yes) or radians (no).

endheader
time	pelvis_tilt	pelvis_list	pelvis_rotation	pelvis_tx	pelvis_ty	pelvis_tz	hip_flexion_r	hip_adduction_r	hip_rotation_r	knee_angle_r	knee_angle_r_beta	ankle_angle_r	subtalar_angle_r	mtp_angle_r	hip_flexion_l	hip_adduction_l	hip_rotation_l	knee_angle_l	knee_angle_l_beta	ankle_angle_l	subtalar_angle_l	mtp_angle_l	lumbar_extension	lumbar_bending	lumbar_rotation	arm_flex_r	arm_add_r	arm_rot_r	elbow_flex_r	pro_sup_r	wrist_flex_r	wrist_dev_r	arm_flex_l	arm_add_l	arm_rot_l	elbow_flex_l	pro_sup_l	wrist_flex_l	wrist_dev_l
      0.36400000	     22.20788625	      1.09245436	      2.63524683	      0.47295935	      0.97244583	     -0.34410630	    -10.86748135	      2.36741168	     -6.13246443	     22.62435027	      0.39486940	     -2.88284512	      0.00000000	      0.00000000	    -15.19902964	     -4.14561122	     -0.01440831	     56.95077988	      0.99397862	    -25.88084894	      0.00000000	      0.00000000	    -34.55238082	      2.20964056	     -3.73421562	      1.96392244	    -15.58281062	      9.75579542	     39.86023653	     76.21400638	      0.00000000	      0.00000000	      3.76289219	    -23.16871652	     24.36488044	     44.44948211	     81.68882978	      0.00000000	      0.00000000
      0.36800000	     22.29099883	      1.03132369	      2.56459269	      0.47871197	      0.97343872	     -0.34369708	    -11.67412073	      2.50955665	     -6.11901868	     21.95573280	      0.38319983	     -2.92675804	      0.00000000	      0.00000000	    -14.76236684	     -4.23145584	     -0.03212127	     56.96936570	      0.99430300	    -24.96445993	      0.00000000	      0.00000000	    -34.55475175	      2.17734350	     -3.58454757	      1.89984619	    -15.58498681	      9.64045473	     40.17542546	     76.30483820	      0.00000000	      0.00000000	      3.55150843	    -23.12353421	     24.07181953	     44.45785909	     81.78628502	      0.00000000	      0.00000000
      0.37200000	     22.48650802	      0.91975646	      2.45349403	      0.48413428	      0.97454291	     -0.34322697	    -12.59584290	      2.71477419	     -5.97263761	     21.23894891	      0.37068959	     -3.08696280	      0.00000000	      0.00000000	    -14.44899385	     -4.32235503	     -0.03924591	     56.90835412	      0.99323815	    -23.97261779	      0.00000000	      0.00000000	    -34.73639604	      2.18207047	     -3.38138859	      1.92557193	    -15.59193261	      9.49561469	     40.46150771	     76.45932341	      0.00000000	      0.00000000	      3.47366339	    -23.06537754	     23.39281633	     44.54543879	     81.56736921	      0.00000000	      0.00000000
      0.37600000	     22.51767896	      0.94023824	      2.31567466	      0.48915323	      0.97536196	     -0.34238033	    -13.06252867	      2.71492520	     -6.15783635	     21.06849458	      0.36771460	     -3.02707200	      0.00000000	      0.00000000	    -13.88556250	     -4.33750763	     -0.13250364	     56.78055968	      0.99100772	    -23.71765435	      0.00000000	      0.00000000	    -34.76658195	      1.98345589	     -3.15517182	      2.03515999	    -15.61679719	      9.67187573	     40.60057162	     76.47549432	      0.00000000	      0.00000000	      3.47780338	    -23.14031149	     23.33574007	     44.55462743	     81.56204860	      0.00000000	      0.00000000
      0.38000000	     22.83334856	      0.84770635	      2.26829832	      0.49526124	      0.97654847	     -0.34210438	    -14.34625692	      2.93653448	     -6.01548811	     19.96106562	      0.34838632	     -3.32022426	      0.00000000	      0.00000000	    -13.80657783	     -4.46193822	     -0.20940408	     56.65788570	      0.98886665	    -22.26226575	      0.00000000	      0.00000000	    -34.95300571	      2.03335968	     -3.16934310	      2.08144844	    -15.76172961	     10.21213586	     40.91703231	     76.37117669	      0.00000000	      0.00000000	      3.03286142	    -23.11900207	     22.78567909	     44.70404007	     81.48323944	      0.00000000	      0.00000000
      0.38400000	     22.82446277	      0.85298517	      2.11984390	      0.50019387	      0.97730638	     -0.34164006	    -14.76092925	      2.91085888	     -6.09136677	     19.79999894	      0.34557517	     -3.27274275	      0.00000000	      0.00000000	    -13.21466410	     -4.40269248	     -0.25333004	     56.44087734	      0.98507914	    -22.01299405	      0.00000000	      0.00000000	    -34.95828872	      1.89921957	     -3.01211087	      2.27385613	    -15.80069253	     10.11520086	     40.94336473	     76.33032744	      0.00000000	      0.00000000	      2.96695224	    -23.16429432	     22.71045539	     44.73475271	     81.47435152	      0.00000000	      0.00000000
      0.38800000	     23.09386731	      0.72711717	      1.67785955	      0.50708484	      0.97844915	     -0.34061146	    -16.08975147	      3.10582755	     -5.31658685	     18.57316454	      0.32416287	     -3.58859326	      0.00000000	      0.00000000	    -13.32141960	     -4.51262508	     -0.78822564	     55.99791538	      0.97734800	    -20.76120460	      0.00000000	      0.00000000	    -35.04293388	      1.72229084	     -2.61277397	      2.10004566	    -15.77673480	      9.99874632	     41.20363422	     75.93990393	      0.00000000	      0.00000000	      2.41466870	    -23.07043237	     22.00721574	     44.94049133	     81.46226052	      0.00000000	      0.00000000
      0.39200000	     23.10521193	      0.83619932	      1.72866084	      0.51198114	      0.97918014	     -0.34054905	    -16.65525284	      3.03865200	     -5.49387590	     18.13908765	      0.31658680	     -3.63223036	      0.00000000	      0.00000000	    -12.71982294	     -4.33290935	     -0.55819146	     55.84135766	      0.97461555	    -19.93024541	      0.00000000	      0.00000000	    -35.06484617	      1.61058981	     -2.65794618	      2.17545532	    -15.78742679	     10.01283158	     41.48062761	     75.86703702	      0.00000000	      0.00000000	      2.35746131	    -23.08997960	     21.86440197	     44.96230129	     81.44155019	      0.00000000	      0.00000000
